<?xml version="1.0" encoding="UTF-8"?>
<svg id="Capa_1" xmlns="http://www.w3.org/2000/svg" version="1.1" viewBox="0 0 50 50">
  <!-- Generator: Adobe Illustrator 29.7.1, SVG Export Plug-In . SVG Version: 2.1.1 Build 8)  -->
  <defs>
    <style>
      .st0 {
        fill: #e0000f;
      }

      .st1 {
        fill: #fff;
      }
    </style>
  </defs>
  <rect class="st0" width="50" height="50"/>
  <g>
    <path class="st1" d="M33.8,34.8c-13.6,0-24.7-10.9-24.9-24.5H3.8c.1,16.5,13.5,29.7,30,29.7s11.5-1.8,16.2-4.8v-6.5c-4.4,3.8-10,6.1-16.2,6.1Z"/>
    <path class="st1" d="M44.7,19.6h0c2.4-.6,3.9-2.2,3.9-4.7s-3-4.7-6.1-4.6h-8.7v18.3h4.6v-7.1s.8,0,.8,0c1.8,0,3-.3,4.3,3.5l1.3,3.6h5.2v-.3l-2.2-5.1c-.9-2.2-1.6-3.2-3.2-3.6ZM40.4,18h-2v-4.3s2,0,2,0c1.9,0,3.3.4,3.3,2.1s-1.4,2.2-3.3,2.2Z"/>
  </g>
</svg>