<?xml version="1.0" encoding="UTF-8"?>
<svg id="Capa_2" data-name="Capa 2" xmlns="http://www.w3.org/2000/svg" viewBox="0 0 240 32.01">
  <defs>
    <style>
      .cls-1 {
        fill: #e0000f;
      }

      .cls-2 {
        fill: #fff;
      }

      .cls-3 {
        fill: none;
        stroke: #b2b2b2;
        stroke-linecap: round;
        stroke-linejoin: round;
        stroke-width: 1.5px;
      }
    </style>
  </defs>
  <g id="Capa_1-2" data-name="Capa 1">
    <g>
      <path d="M234.57,9.58c2.36-.6,3.93-2.24,3.93-4.68,0-3.15-2.95-4.65-6.09-4.64h-8.74v18.3h4.64v-7.13s.77,0,.77,0c1.82,0,2.98-.27,4.33,3.51l1.28,3.62h5.31l-2.27-5.36c-.92-2.23-1.59-3.2-3.16-3.62h0ZM230.31,7.99h-2V3.69s2,0,2,0c1.93,0,3.3.41,3.3,2.13s-1.37,2.17-3.3,2.17ZM220.71,18.56h-13.11V.26h12.83v3.44h-7.98v3.76h7.54v3.44h-7.54v4.22h8.26v3.44ZM197.18,7.99h7.68v9c-2.29,1.57-4.84,1.9-7.38,1.92-2.93.03-5.94-1.19-7.88-3.46-1.29-1.51-2.11-3.5-2.11-5.89,0-6.37,5.47-10.09,11.5-9.49,1.19.12,3.17.43,5.15,1.49l-1.86,3.05c-1.13-.47-1.74-.69-2.88-.82-3.97-.46-7.12,2.11-7.12,6.01,0,3.16,2.48,5.5,6.03,5.5.65,0,1.85-.04,2.6-.55v-3.32h-3.73s0-3.44,0-3.44h0ZM182.09,9.58c2.36-.6,3.93-2.24,3.93-4.68,0-3.15-2.95-4.65-6.09-4.64h-8.74v18.3h4.64v-7.13s.77,0,.77,0c1.82,0,2.98-.27,4.33,3.51l1.28,3.62h5.31l-2.27-5.36c-.92-2.23-1.59-3.2-3.16-3.62h0ZM177.83,7.99h-2V3.69s2,0,2,0c1.93,0,3.3.41,3.3,2.13s-1.37,2.17-3.3,2.17ZM168.23,18.56h-13.11V.26h12.83v3.44h-7.98v3.76h7.54v3.44h-7.54v4.22h8.26v3.44ZM152.11,15.45c.28-.63.44-1.37.44-2.25,0-2.22-1.25-3.52-3.68-4.02,2.04-.73,3.21-2.01,3.21-4.3,0-3.13-2.53-4.61-5.92-4.61h-8.38v18.3h7.67c2.6,0,5.56-.64,6.66-3.11h0s0,0,0,0ZM144.07,15.02h-1.43v-4.28h1.48c1.67,0,3.57.18,3.57,2.17,0,1.85-1.85,2.11-3.63,2.11h0ZM142.64,3.7h1.41c1.62,0,3.18.16,3.18,1.83,0,1.54-1.64,1.93-3.23,1.93h-1.36v-3.76h0ZM122.3,18.56h-4.16V.26h5.98l5.94,12.36V.26h4.3v18.3h-5.83l-6.24-12.54v12.54h0ZM114.93,18.56h-13.11V.26h12.83v3.44h-7.98v3.76h7.54v3.44h-7.54v4.22h8.26v3.44ZM93.38.26h4.85v18.3h-4.85v-7.65h-5.74v7.65h-4.85V.26h4.85v7.2s5.74,0,5.74,0V.26h0ZM65.62.26h14.7v4.19h-4.92v14.11s-4.85,0-4.85,0V4.45h-4.92V.26s0,0,0,0ZM55.91,0c-4.84,0-9.45,3.68-9.46,9.42,0,2.36.8,4.43,2.11,6.03h0c1.77,2.16,4.47,3.46,7.37,3.46s5.59-1.3,7.36-3.46h0c1.31-1.6,2.11-3.68,2.11-6.04C65.39,3.67,60.76,0,55.91,0h0ZM55.91,14.86c-2.97,0-4.43-2.5-4.43-5.44s1.52-5.43,4.47-5.43,4.42,2.52,4.42,5.44-1.49,5.43-4.46,5.43ZM40.9,9.58c2.36-.6,3.93-2.24,3.93-4.68,0-3.15-2.95-4.65-6.09-4.64h-8.74v18.3h4.64v-7.13s.77,0,.77,0c1.82,0,2.98-.27,4.33,3.51l1.28,3.62h5.31l-2.27-5.36c-.92-2.23-1.59-3.2-3.16-3.62h0ZM36.64,7.99h-2V3.69s2,0,2,0c1.93,0,3.3.41,3.3,2.13s-1.37,2.17-3.3,2.17Z"/>
      <path class="cls-1" d="M46.33,18.56l2.17,5.03c-5.11,4.02-11.49,6.41-18.49,6.41C13.5,30,.13,16.73,0,.26h5.14c.13,13.6,11.23,24.54,24.86,24.54,6.3,0,11.95-2.37,16.33-6.24Z"/>
      <g>
        <g>
          <path class="cls-3" d="M232.75,30.45c1.61-.34,3.21-.34,4.82.68,0-3.39,0-6.78,0-10.16-1.61-1.02-3.21-1.02-4.82-.68,0,3.39,0,6.78,0,10.16Z"/>
          <path class="cls-3" d="M227.94,31.81c1.61-.34,3.21-1.01,4.82-1.35,0-3.39,0-6.78,0-10.16-1.61.34-3.21,1.01-4.82,1.35,0,3.39,0,6.78,0,10.16Z"/>
          <path class="cls-3" d="M223.12,31.12c1.61,1.02,3.21,1.02,4.82.68,0-3.39,0-6.78,0-10.16-1.61.34-3.21.34-4.82-.68,0,3.39,0,6.78,0,10.16Z"/>
        </g>
        <g>
          <path class="cls-1" d="M232.75,30.45c1.61-.34,3.21-.34,4.82.68,0-3.39,0-6.78,0-10.16-1.61-1.02-3.21-1.02-4.82-.68,0,3.39,0,6.78,0,10.16Z"/>
          <path class="cls-2" d="M227.94,31.81c1.61-.34,3.21-1.01,4.82-1.35,0-3.39,0-6.78,0-10.16-1.61.34-3.21,1.01-4.82,1.35,0,3.39,0,6.78,0,10.16Z"/>
          <path class="cls-1" d="M223.12,31.12c1.61,1.02,3.21,1.02,4.82.68,0-3.39,0-6.78,0-10.16-1.61.34-3.21.34-4.82-.68,0,3.39,0,6.78,0,10.16Z"/>
        </g>
      </g>
    </g>
  </g>
</svg>